<svg width="26" height="25" viewBox="0 0 26 25" fill="none" xmlns="http://www.w3.org/2000/svg">
<path d="M0.997549 0.0337499H4.8995e-05V2.02875H0.997549V1.03125V0.0337499ZM24.9375 2.02875H25.935V0.0337499H24.9375V1.03125V2.02875ZM6.98254 7.01375H5.98504V16.9887H6.98254H7.98004V7.01375H6.98254ZM18.9525 7.01375H17.955V16.9887H18.9525H19.95V7.01375H18.9525ZM5.98499 17.9862V18.9837H19.95V17.9862V16.9887H5.98499V17.9862ZM0.997491 1.02875H-9.53674e-06V22.9738H0.997491H1.99499V1.02875H0.997491ZM24.9374 1.02875H23.9399V22.9738H24.9374H25.9349V1.02875H24.9374ZM0 23.9713V24.9688H25.935V23.9713V22.9738H0V23.9713ZM0.997549 1.03125V2.02875H24.9375V1.03125V0.0337499H0.997549V1.03125ZM12.9675 1.02875H11.97V16.9888H12.9675H13.965V1.02875H12.9675Z" fill="white"/>
</svg>
